<svg width="40" height="40" viewBox="0 0 40 40" xmlns="http://www.w3.org/2000/svg">
  <rect x="0" y="0" width="40" height="40" rx="8" fill="#161b22" stroke="#30363d" stroke-width="0.5"/>
  <path d="M20 3 L34 9 L34 25 Q34 34 20 39 Q6 34 6 25 L6 9 Z" fill="#0d1117" stroke="#2db870" stroke-width="1.5"/>
  <path d="M20 7 L31 11 L31 25 Q31 32 20 36 Q9 32 9 25 L9 11 Z" fill="#161b22"/>
  <rect x="12" y="22" width="16" height="11" rx="2.5" fill="#2db870"/>
  <path d="M15 22 L15 17 Q15 13 20 13 Q25 13 25 17 L25 22" fill="none" stroke="#2db870" stroke-width="2.5" stroke-linecap="round"/>
  <circle cx="20" cy="27" r="2.5" fill="#0d1117"/>
  <rect x="18.5" y="27" width="3" height="3.5" fill="#0d1117"/>
  <circle cx="31" cy="35" r="2.5" fill="#3ddc84"/>
  <circle cx="31" cy="35" r="4.5" fill="none" stroke="#3ddc84" stroke-width="0.5" opacity="0.5"/>
</svg>
