<svg width="540" height="80" viewBox="0 0 540 80" xmlns="http://www.w3.org/2000/svg">
  <!-- bg pill -->
  <rect x="0" y="0" width="540" height="80" rx="10" fill="#161b22" stroke="#30363d" stroke-width="0.5"/>

  <!-- Shield -->
  <g transform="translate(28, 10)">
    <path d="M24 2 L44 10 L44 34 Q44 50 24 58 Q4 50 4 34 L4 10 Z" fill="#0d1117" stroke="#2db870" stroke-width="1.5"/>
    <path d="M24 7 L39 14 L39 34 Q39 46 24 52 Q9 46 9 34 L9 14 Z" fill="#161b22"/>
    <rect x="15" y="30" width="18" height="14" rx="2.5" fill="#2db870"/>
    <path d="M18 30 L18 24 Q18 18 24 18 Q30 18 30 24 L30 30" fill="none" stroke="#2db870" stroke-width="3" stroke-linecap="round"/>
    <circle cx="24" cy="36" r="3" fill="#0d1117"/>
    <rect x="22.5" y="36" width="3" height="4" fill="#0d1117"/>
    <circle cx="41" cy="50" r="3.5" fill="#3ddc84"/>
    <circle cx="41" cy="50" r="6" fill="none" stroke="#3ddc84" stroke-width="1" opacity="0.5"/>
  </g>

  <!-- Wordmark -->
  <text x="106" y="43" font-family="monospace" font-size="28" font-weight="500" fill="#3ddc84">sudo-replay</text>
  <text x="108" y="65" font-family="sans-serif" font-size="12" fill="#8b949e" letter-spacing="0.5">privileged session logging · mTLS · tamper-evident</text>
</svg>
