<svg width="560" height="52" viewBox="0 0 560 52" xmlns="http://www.w3.org/2000/svg">
  <rect x="0" y="0" width="560" height="52" rx="8" fill="#111820" stroke="#21262d" stroke-width="0.5"/>

  <!-- Shield -->
  <g transform="translate(20, 10)">
    <path d="M14 0 L26 5 L26 16 Q26 24 14 28 Q2 24 2 16 L2 5 Z" fill="#0d1117" stroke="#2db870" stroke-width="1.5"/>
    <path d="M14 4 L22 8 L22 16 Q22 22 14 25 Q6 22 6 16 L6 8 Z" fill="#111820"/>
    <rect x="8" y="16" width="12" height="8" rx="2" fill="#2db870"/>
    <path d="M10 16 L10 11.5 Q10 8 14 8 Q18 8 18 11.5 L18 16" fill="none" stroke="#2db870" stroke-width="2.5" stroke-linecap="round"/>
    <circle cx="14" cy="20" r="2" fill="#0d1117"/>
    <rect x="13" y="20" width="2" height="3" fill="#0d1117"/>
    <circle cx="24" cy="26" r="2.5" fill="#3ddc84"/>
    <circle cx="24" cy="26" r="4.5" fill="none" stroke="#3ddc84" stroke-width="0.5" opacity="0.5"/>
  </g>

  <!-- Wordmark -->
  <text x="60" y="30" font-family="monospace" font-size="18" font-weight="500" fill="#3ddc84" letter-spacing="-0.3">sudo-replay</text>

  <!-- Sessions pill (outline) -->
  <rect x="178" y="14" width="78" height="24" rx="12" fill="#1f2d22" stroke="#2db870" stroke-width="0.5"/>
  <text x="217" y="30" font-family="sans-serif" font-size="11" fill="#2db870" text-anchor="middle">68 sessions</text>

  <!-- Sessions tab (active, filled) -->
  <rect x="268" y="15" width="68" height="22" rx="11" fill="#2db870"/>
  <text x="302" y="30" font-family="sans-serif" font-size="11" font-weight="500" fill="#0d1117" text-anchor="middle">Sessions</text>

  <!-- Other nav items -->
  <text x="350" y="30" font-family="sans-serif" font-size="13" fill="#8b949e">Summary</text>
  <text x="424" y="30" font-family="sans-serif" font-size="13" fill="#8b949e">Anomalies</text>
  <text x="504" y="30" font-family="sans-serif" font-size="13" fill="#8b949e">Settings</text>
</svg>
