<svg xmlns="http://www.w3.org/2000/svg" viewBox="0 0 1200 710" width="1200" height="710" font-family="'JetBrains Mono','Fira Code',monospace">
  <defs>
    <clipPath id="clip-main"><rect width="1200" height="710" rx="8"/></clipPath>
    <clipPath id="clip-term"><rect x="589" y="79" width="601" height="565"/></clipPath>
  </defs>

  <!-- Window chrome -->
  <rect width="1200" height="710" rx="8" fill="#09090f" stroke="#1e2230" stroke-width="1.5"/>
  <rect width="1200" height="710" rx="8" fill="none" stroke="#2a2f42" stroke-width="0.5"/>

  <!-- ── TOP BAR ── -->
  <rect x="0" y="0" width="1200" height="42" fill="#0f1117" clip-path="url(#clip-main)"/>
  <line x1="0" y1="42" x2="1200" y2="42" stroke="#1e2230" stroke-width="1"/>

  <!-- Logo -->
  <text x="16" y="26" fill="#00e87a" font-size="14" font-weight="700" letter-spacing="0.04em">◈ sudo-replay</text>

  <!-- Badge -->
  <rect x="172" y="12" width="84" height="18" rx="3" fill="#161921" stroke="#1e2230" stroke-width="1"/>
  <text x="214" y="25" fill="#8890a8" font-size="11" text-anchor="middle">6 sessions</text>

  <!-- ── SIDEBAR ── -->
  <rect x="0" y="42" width="288" height="668" fill="#0f1117"/>
  <line x1="288" y1="42" x2="288" y2="710" stroke="#1e2230" stroke-width="1"/>

  <!-- Search bar -->
  <rect x="10" y="52" width="268" height="28" rx="4" fill="#161921" stroke="#1e2230" stroke-width="1"/>
  <text x="36" y="71" fill="#4a5068" font-size="12">Search user, host, command…</text>
  <!-- Search icon -->
  <circle cx="24" cy="66" r="5" fill="none" stroke="#4a5068" stroke-width="1.5"/>
  <line x1="28" y1="70" x2="32" y2="74" stroke="#4a5068" stroke-width="1.5" stroke-linecap="round"/>

  <line x1="0" y1="89" x2="288" y2="89" stroke="#1e2230" stroke-width="1"/>

  <!-- ── SESSION CARDS ── -->

  <!-- Card 1 — ACTIVE -->
  <rect x="0" y="89" width="2" height="72" fill="#00e87a"/>
  <rect x="2" y="89" width="286" height="72" fill="#1a2035"/>
  <line x1="0" y1="161" x2="288" y2="161" stroke="#1e2230" stroke-width="1"/>
  <text x="14" y="107" fill="#00e87a" font-size="12" font-weight="600">alice@webserver01</text>
  <text x="14" y="124" fill="#8890a8" font-size="11">vim /etc/nginx/nginx.conf</text>
  <text x="14" y="147" fill="#4a5068" font-size="10">Mar 9, 09:14</text>
  <rect x="224" y="138" width="52" height="15" rx="2" fill="#161921" stroke="#003d20" stroke-width="1"/>
  <text x="250" y="149" fill="#00e87a" font-size="10" text-anchor="middle">3:24</text>

  <!-- Card 2 -->
  <rect x="0" y="161" width="288" height="72" fill="#0f1117"/>
  <line x1="0" y1="233" x2="288" y2="233" stroke="#1e2230" stroke-width="1"/>
  <text x="14" y="179" fill="#d4daf0" font-size="12" font-weight="600">bob@dbserver</text>
  <text x="14" y="196" fill="#8890a8" font-size="11">pg_dump -U postgres mydb -f…</text>
  <text x="14" y="219" fill="#4a5068" font-size="10">Mar 9, 08:59</text>
  <rect x="224" y="210" width="52" height="15" rx="2" fill="#161921" stroke="#1e2230" stroke-width="1"/>
  <text x="250" y="221" fill="#4a5068" font-size="10" text-anchor="middle">1:47</text>

  <!-- Card 3 -->
  <rect x="0" y="233" width="288" height="72" fill="#0f1117"/>
  <line x1="0" y1="305" x2="288" y2="305" stroke="#1e2230" stroke-width="1"/>
  <text x="14" y="251" fill="#d4daf0" font-size="12" font-weight="600">root@gateway</text>
  <text x="14" y="268" fill="#8890a8" font-size="11">iptables -A INPUT -p tcp --dp…</text>
  <text x="14" y="291" fill="#4a5068" font-size="10">Mar 9, 08:12</text>
  <rect x="224" y="282" width="52" height="15" rx="2" fill="#161921" stroke="#1e2230" stroke-width="1"/>
  <text x="250" y="293" fill="#4a5068" font-size="10" text-anchor="middle">0:12</text>

  <!-- Card 4 -->
  <rect x="0" y="305" width="288" height="72" fill="#0f1117"/>
  <line x1="0" y1="377" x2="288" y2="377" stroke="#1e2230" stroke-width="1"/>
  <text x="14" y="323" fill="#d4daf0" font-size="12" font-weight="600">alun@devbox</text>
  <text x="14" y="340" fill="#8890a8" font-size="11">systemctl restart --now postgresql</text>
  <text x="14" y="363" fill="#4a5068" font-size="10">Mar 9, 07:41</text>
  <rect x="224" y="354" width="52" height="15" rx="2" fill="#161921" stroke="#1e2230" stroke-width="1"/>
  <text x="250" y="365" fill="#4a5068" font-size="10" text-anchor="middle">0:05</text>

  <!-- Card 5 -->
  <rect x="0" y="377" width="288" height="72" fill="#0f1117"/>
  <line x1="0" y1="449" x2="288" y2="449" stroke="#1e2230" stroke-width="1"/>
  <text x="14" y="395" fill="#d4daf0" font-size="12" font-weight="600">alice@webserver02</text>
  <text x="14" y="412" fill="#8890a8" font-size="11">tar czf /backup/web.tar.gz /var…</text>
  <text x="14" y="435" fill="#4a5068" font-size="10">Mar 9, 06:30</text>
  <rect x="224" y="426" width="52" height="15" rx="2" fill="#161921" stroke="#1e2230" stroke-width="1"/>
  <text x="250" y="437" fill="#4a5068" font-size="10" text-anchor="middle">0:31</text>

  <!-- Card 6 -->
  <rect x="0" y="449" width="288" height="72" fill="#0f1117"/>
  <line x1="0" y1="521" x2="288" y2="521" stroke="#1e2230" stroke-width="1"/>
  <text x="14" y="467" fill="#d4daf0" font-size="12" font-weight="600">bob@appserver</text>
  <text x="14" y="484" fill="#8890a8" font-size="11">find /var/log -name "*.log" -mt…</text>
  <text x="14" y="507" fill="#4a5068" font-size="10">Mar 8, 22:15</text>
  <rect x="224" y="498" width="52" height="15" rx="2" fill="#161921" stroke="#1e2230" stroke-width="1"/>
  <text x="250" y="509" fill="#4a5068" font-size="10" text-anchor="middle">2:15</text>

  <!-- ── PLAYER AREA ── -->

  <!-- Info bar -->
  <rect x="289" y="42" width="911" height="36" fill="#0f1117"/>
  <line x1="289" y1="78" x2="1200" y2="78" stroke="#1e2230" stroke-width="1"/>
  <text x="303" y="64" fill="#4a5068" font-size="11">user</text>
  <text x="330" y="64" fill="#00e87a" font-size="11">alice</text>
  <text x="376" y="64" fill="#4a5068" font-size="11">host</text>
  <text x="404" y="64" fill="#d4daf0" font-size="11">webserver01</text>
  <text x="494" y="64" fill="#4a5068" font-size="11">cmd</text>
  <text x="520" y="64" fill="#00e87a" font-size="11">vim /etc/nginx/nginx.conf</text>
  <text x="786" y="64" fill="#4a5068" font-size="11">tty</text>
  <text x="812" y="64" fill="#d4daf0" font-size="11">/dev/pts/0</text>

  <!-- Terminal background -->
  <rect x="289" y="79" width="911" height="589" fill="#09090f"/>

  <!-- Terminal content — fake vim output -->
  <g clip-path="url(#clip-term)" font-size="13" font-family="'JetBrains Mono','Fira Code',monospace">
    <!-- Line numbers in dim color, content in terminal colors -->
    <text x="299" y="101" fill="#2a2f42">  1</text>
    <text x="330" y="101" fill="#4da8ff"># nginx.conf — main configuration</text>

    <text x="299" y="117" fill="#2a2f42">  2</text>

    <text x="299" y="133" fill="#2a2f42">  3</text>
    <text x="330" y="133" fill="#c984f8">user</text>
    <text x="368" y="133" fill="#d4daf0"> nginx;</text>

    <text x="299" y="149" fill="#2a2f42">  4</text>
    <text x="330" y="149" fill="#c984f8">worker_processes</text>
    <text x="474" y="149" fill="#d4daf0"> auto;</text>

    <text x="299" y="165" fill="#2a2f42">  5</text>
    <text x="330" y="165" fill="#c984f8">error_log</text>
    <text x="408" y="165" fill="#ffd666"> /var/log/nginx/error.log</text>
    <text x="612" y="165" fill="#d4daf0"> warn;</text>

    <text x="299" y="181" fill="#2a2f42">  6</text>
    <text x="299" y="197" fill="#2a2f42">  7</text>
    <text x="330" y="197" fill="#d4daf0">events {</text>

    <text x="299" y="213" fill="#2a2f42">  8</text>
    <text x="330" y="213" fill="#d4daf0">    </text>
    <text x="352" y="213" fill="#c984f8">worker_connections</text>
    <text x="503" y="213" fill="#ffd666"> 1024</text>
    <text x="534" y="213" fill="#d4daf0">;</text>

    <text x="299" y="229" fill="#2a2f42">  9</text>
    <text x="330" y="229" fill="#d4daf0">}</text>

    <text x="299" y="245" fill="#2a2f42"> 10</text>
    <text x="299" y="261" fill="#2a2f42"> 11</text>
    <text x="330" y="261" fill="#d4daf0">http {</text>

    <!-- Cursor line highlight -->
    <rect x="289" y="269" width="911" height="16" fill="#1a2035"/>
    <text x="299" y="281" fill="#2a2f42"> 12</text>
    <text x="330" y="281" fill="#d4daf0">    </text>
    <text x="352" y="281" fill="#c984f8">include</text>
    <text x="403" y="281" fill="#ffd666"> /etc/nginx/mime.types</text>
    <text x="574" y="281" fill="#d4daf0">;</text>
    <!-- Cursor block -->
    <rect x="584" y="270" width="8" height="14" fill="#00e87a" opacity="0.9"/>

    <text x="299" y="297" fill="#2a2f42"> 13</text>
    <text x="330" y="297" fill="#d4daf0">    </text>
    <text x="352" y="297" fill="#c984f8">include</text>
    <text x="403" y="297" fill="#ffd666"> /etc/nginx/conf.d/*.conf</text>
    <text x="571" y="297" fill="#d4daf0">;</text>

    <text x="299" y="313" fill="#2a2f42"> 14</text>
    <text x="299" y="329" fill="#2a2f42"> 15</text>
    <text x="330" y="329" fill="#d4daf0">    server {</text>

    <text x="299" y="345" fill="#2a2f42"> 16</text>
    <text x="330" y="345" fill="#d4daf0">        </text>
    <text x="378" y="345" fill="#c984f8">listen</text>
    <text x="420" y="345" fill="#ffd666"> 80</text>
    <text x="436" y="345" fill="#d4daf0">;</text>

    <text x="299" y="361" fill="#2a2f42"> 17</text>
    <text x="330" y="361" fill="#d4daf0">        </text>
    <text x="378" y="361" fill="#c984f8">server_name</text>
    <text x="457" y="361" fill="#ffd666"> example.com</text>
    <text x="547" y="361" fill="#d4daf0">;</text>

    <text x="299" y="377" fill="#2a2f42"> 18</text>
    <text x="299" y="393" fill="#2a2f42"> 19</text>
    <text x="330" y="393" fill="#d4daf0">        location / {</text>

    <text x="299" y="409" fill="#2a2f42"> 20</text>
    <text x="330" y="409" fill="#d4daf0">            </text>
    <text x="426" y="409" fill="#c984f8">root</text>
    <text x="456" y="409" fill="#ffd666"> /var/www/html</text>
    <text x="554" y="409" fill="#d4daf0">;</text>

    <text x="299" y="425" fill="#2a2f42"> 21</text>
    <text x="330" y="425" fill="#d4daf0">            </text>
    <text x="426" y="425" fill="#c984f8">index</text>
    <text x="464" y="425" fill="#ffd666"> index.html</text>
    <text x="546" y="425" fill="#d4daf0">;</text>

    <text x="299" y="441" fill="#2a2f42"> 22</text>
    <text x="330" y="441" fill="#d4daf0">        }</text>

    <text x="299" y="457" fill="#2a2f42"> 23</text>
    <text x="330" y="457" fill="#d4daf0">    }</text>

    <text x="299" y="473" fill="#2a2f42"> 24</text>
    <text x="330" y="473" fill="#d4daf0">}</text>

    <!-- Vim status bar at bottom of terminal -->
    <rect x="289" y="620" width="911" height="18" fill="#1e2230"/>
    <text x="299" y="633" fill="#d4daf0" font-size="11">-- NORMAL --</text>
    <text x="1000" y="633" fill="#d4daf0" font-size="11" text-anchor="end">12,7    All</text>
  </g>

  <!-- Scrollbar (right edge of terminal) -->
  <rect x="1180" y="79" width="9" height="589" fill="#161921"/>
  <rect x="1181" y="89" width="7" height="80" rx="3" fill="#2a2f42"/>

  <!-- ── CONTROLS BAR ── -->
  <rect x="289" y="668" width="911" height="42" fill="#0f1117"/>
  <line x1="289" y1="668" x2="1200" y2="668" stroke="#1e2230" stroke-width="1"/>

  <!-- Play button -->
  <rect x="303" y="679" width="30" height="22" rx="4" fill="#003d20" stroke="#00e87a" stroke-width="1"/>
  <text x="318" y="694" fill="#00e87a" font-size="13" text-anchor="middle">⏸</text>

  <!-- Restart button -->
  <rect x="341" y="679" width="26" height="22" rx="4" fill="#161921" stroke="#1e2230" stroke-width="1"/>
  <text x="354" y="694" fill="#8890a8" font-size="12" text-anchor="middle">↺</text>

  <!-- Time current -->
  <text x="382" y="694" fill="#00e87a" font-size="11" text-anchor="middle">1:41</text>

  <!-- Scrubber track -->
  <rect x="406" y="688" width="694" height="3" rx="1.5" fill="#2a2f42"/>
  <!-- Scrubber fill -->
  <rect x="406" y="688" width="310" height="3" rx="1.5" fill="#00e87a"/>
  <!-- Scrubber thumb -->
  <circle cx="716" cy="689.5" r="5.5" fill="#00e87a" filter="drop-shadow(0 0 4px #00e87a)"/>

  <!-- Time total -->
  <text x="1112" y="694" fill="#8890a8" font-size="11" text-anchor="middle">3:24</text>

  <!-- Speed select -->
  <rect x="1130" y="679" width="48" height="22" rx="4" fill="#161921" stroke="#1e2230" stroke-width="1"/>
  <text x="1154" y="694" fill="#8890a8" font-size="11" text-anchor="middle">1×</text>
</svg>
